<?xml version="1.0" encoding="UTF-8"?><svg id="Capa_2" xmlns="http://www.w3.org/2000/svg" viewBox="0 0 1024.52 460.06"><defs><style>.cls-1{fill:#f2d022;stroke-width:0px;}</style></defs><g id="Capa_1-2"><path class="cls-1" d="m0,124.75c17.71-2.55,35.41-5.1,53.12-7.65,54.94-7.91,87.89,64.31,104.88,103.27,5.82,13.33,52.6,118.45,10.69,120.53-4.65.32-6.97.48-11.62.8,20.17,37.39,40.35,74.78,60.52,112.17-8.76.04-13.14.06-21.9.1C130.46,344.22,65.23,234.48,0,124.75Zm130.2,145.9c19.09-3.2-.23-39.64-3.67-46.71-7.1-14.61-18.79-38.75-39.4-36.09-4.9.61-7.34.92-12.24,1.53,14.81,27.44,29.61,54.89,44.42,82.33,4.35-.43,6.53-.64,10.89-1.07Zm21.39,47.34c-3.93-20.27-7.33-40.57-10.25-61.01,44.07,63.73,85.23,129.23,123.36,196.69-9.78.04-14.67.06-24.45.11-28.28-46.11-57.84-91.33-88.66-135.78Z"/><path class="cls-1" d="m158.94,101.87c17.65-2.54,27.1-2,44.25,2.98,49.05,115.09,95.3,231.33,137.88,348.98-9.26-.08-13.89-.12-23.16-.2-21.59-57.33-43.78-114.43-66.52-171.31-15.43-37.92-30.04-76.27-46.52-113.74-.32.04-.48.06-.79.1,10.01,37.77,20.44,75.43,30.76,113.12,16.26,57.56,33.51,114.82,51.77,171.78-8.96.04-13.45.06-22.41.1-40.79-115.53-75.87-232.84-105.26-351.79Zm66.87,205.8c18.37-1.49,33.67-.99,51.81,1.93,7.38,23.57,14.77,47.13,22.15,70.7-15.8-1.5-30.4-1.79-46.25-1.02-9.24-23.87-18.47-47.74-27.71-71.61Z"/><path class="cls-1" d="m332.09,412.02c-1.24-19.65-1.97-39.34-2.24-59.03,7.29,11.35,17.4,31.62,30.44,33.54,6.68.98,8.64-8.33,6.07-22.37-2.37-13-11.37-22.88-20.67-31.89-6.79-7.04-10.24-10.65-17.22-18.35-24.37-26.3-37.98-63.36-47.08-96.57-6.11-22.3-23.39-97.38,22.83-91.73,25.03,3.06,42.06,27.98,54.31,47.4-2.91,17.1-5.48,34.22-7.72,51.43-7.82-10.15-16.62-23.81-30.15-25.4-8.06-.95-11.71,6.33-8.18,20.73,3.6,14.7,14.54,24,25.42,33.74,7.12,6.58,10.61,9.86,17.46,16.37,23.66,23.2,31.83,57.59,36.75,88.57,2.42,15.21,13.15,103.23-15.55,101.57-19.42-1.12-35.17-32.52-44.46-48.02Z"/><path class="cls-1" d="m378.91,139.07c12.45,1.27,24.89,2.54,37.34,3.81,3.28,38.65,6.56,77.29,9.84,115.94,11.88.91,23.75,1.82,35.63,2.73-1.12-38.12-2.24-76.25-3.36-114.37,12.45,1.27,24.89,2.54,37.34,3.81-2.13,101.15-4.26,202.3-6.39,303.45-8.76-.03-13.14-.04-21.91-.07-1.2-40.64-2.39-81.29-3.59-121.93-10.54-.58-21.08-1.17-31.62-1.75,3.5,41.2,7,82.4,10.49,123.6-8.76-.03-13.14-.04-21.91-.07-13.96-105.05-27.91-210.1-41.87-315.15Z"/><path class="cls-1" d="m512.35,306.33c2.22-39.52,15.48-155,77.51-151.25,18.03,1.09,23.72,2.5,30.13,20.83-8.15,20.39-16.29,40.78-24.41,61.17-3.02-10.21-6.86-14.67-15.17-14.98-28.4-1.06-35.46,64.44-37.58,83.44-1.75,15.73-8.24,86.47,10.93,87.54,9.16.51,16.87-19.51,21.02-28.5,1.39,16.28,2.51,32.6,3.3,48.92-6.22,14.17-17.43,45.9-35.35,46.53-15.02.53-21.38-25.9-24.11-38.05-8.48-37.68-8.4-77.81-6.28-115.65Z"/><path class="cls-1" d="m644.04,128.06c14.71-10.13,29.42-20.25,44.14-30.38,47.37-35.55,20.58,81.76,18.02,93.02-8.07,35.47-18.02,72.22-34.68,105.21-7.16,14.19-16.91,32.75-33.13,38.23-4.27,1.27-6.41,1.9-10.68,3.17-7.94,38.77-15.88,77.54-23.82,116.32-8.72.15-13.07.23-21.79.38,20.65-108.65,41.29-217.31,61.94-325.97Zm8.16,132.46c17.99-9.69,23.03-38.29,26.72-55.65.67-3.18,9.85-45.17-8.43-31.57-4.18,2.43-6.26,3.65-10.44,6.08-5.83,28.46-11.65,56.92-17.48,85.37,3.85-1.69,5.78-2.54,9.64-4.23Zm-13.21,50.58c10.37-23.39,20.74-46.77,31.1-70.16-4.74,70.78-11.4,141.38-19.32,211.87-9.73.17-14.59.26-24.32.43,4.85-47.32,9.09-94.69,12.55-142.13Z"/><path class="cls-1" d="m757.08,50.26C780.59,34.08,806.14,10.17,832.93,0c-8.7,33.36-17.4,66.71-26.1,100.07-14.73,4.76-28.68,15.04-41.99,22.71-5.45,22.14-10.9,44.27-16.36,66.41,11.27-5.48,22.54-10.97,33.8-16.45-8.52,33.15-17.05,66.3-25.57,99.46-10.44,3.58-20.88,7.17-31.33,10.75-6.2,25.18-12.4,50.35-18.6,75.53,11.88-2.5,23.81-5.64,35.91-6.84-8.77,33.36-17.53,66.71-26.3,100.07-18.16.24-36.33.59-54.49.91,31.72-134.12,63.44-268.23,95.16-402.35Z"/><path class="cls-1" d="m849.08,0c12.8,0,25.6,0,38.4,0-17.91,65.9-36.23,131.69-54.96,197.36-13.81,47.3-27.67,94.58-41.83,141.77h.6c17.16-47.36,34.57-94.62,52.29-141.77C869.19,131.3,895.47,65.52,922.4,0h31.42c-20.1,66.01-40.9,131.79-62.39,197.36-16.02,47.38-32.45,94.62-49.13,141.77h.6c19.66-47.35,39.58-94.58,59.6-141.77C930.87,131.41,959.61,65.62,988.73,0c11.93,0,23.85,0,35.78,0-73.02,149.35-143.5,299.91-211.3,451.7h-27.77c20-59.6,39.5-119.36,58.49-179.29,11.12-35.26,22.41-70.46,33.78-105.63h-.74c-13.87,35.2-27.58,70.47-41.54,105.63-23.5,59.58-46.53,119.34-69.09,179.29h-27.26C778.89,301.91,815.6,151.33,849.08,0Z"/></g></svg>